<?xml version="1.0" encoding="UTF-8"?>
<svg id="Layer_2" data-name="Layer 2" xmlns="http://www.w3.org/2000/svg" viewBox="0 0 5.86 6.79">
  <defs>
    <style>
      .cls-1 {
        fill: #eae6e3;
      }
    </style>
  </defs>
  <g id="Layer_1-2" data-name="Layer 1">
    <g>
      <path class="cls-1" d="M5.8,3.13c-.19-1.43-.95-2.54-2.05-2.94C2.52-.25,1,.06.35,1.31-.29,2.55,0,4.03.82,5.16c.59.79,1.91,1.95,3.39,1.55,1.61-.42,1.76-2.3,1.59-3.58ZM5.06,4.05c-.49-.34-1.1-.32-1.26-.55-.24-.35-.04-1.1-.33-1.75-.65.4-.77,1.97-.02,2.45.4.26,1.22.17,1.34.41.16.31-.11,1.12-.62,1.32-1.05.4-2.09-.44-2.66-1.12-.77-.93-1.13-2.29-.35-3.34.69-.92,2.22-.88,2.92-.24.79.72,1.21,1.88.98,2.82Z"/>
      <path class="cls-1" d="M2.41,2.67c-.24.23-.42.26-.55.27-.11.02-.28.06-.31-.1-.1-.55.51-1.02.71-1.01.15,0,.29.11.37.2.18.26-.01.43-.22.64Z"/>
    </g>
  </g>
</svg>