<?xml version="1.0" encoding="UTF-8"?>
<svg id="Layer_2" data-name="Layer 2" xmlns="http://www.w3.org/2000/svg" viewBox="0 0 27.48 29.85">
  <defs>
    <style>
      .cls-1 {
        fill: #eae6e3;
      }
    </style>
  </defs>
  <g id="Layer_1-2" data-name="Layer 1">
    <path class="cls-1" d="M27.48,12.89l-8.06-1.58,3.53-6.36c.25-.34-.08-1.19-.32-1.03l-7.5,5.23L11.4,0c-1.31,3.55-1.49,6.98-1.99,10.33-3.31.36-6.29.37-9.41,1.39l7.24,2.53-3.68,10.99,6.92-6.77-1.06,11c-.01.36.47.53.62.22l4.69-9.84,6.26,8.32-2.43-12.61c2.94-.88,6.01-1.12,8.92-2.67ZM19.83,25.54l-5.06-7.13-4.34,8.48.92-10.13-6.25,6.04,3.12-8.94-5.88-1.9,7.79-.99c.28-3.07.62-5.94,1.41-8.87,1.32,2.9,1.87,5.64,3.42,8.2l6.62-4.72-3.31,6.4,6.56,1.02-7.24,2.05,2.24,10.49Z"/>
  </g>
</svg>