<?xml version="1.0" encoding="UTF-8"?>
<svg id="Layer_2" data-name="Layer 2" xmlns="http://www.w3.org/2000/svg" viewBox="0 0 9.3 34.45">
  <defs>
    <style>
      .cls-1 {
        fill: #303951;
      }

      .cls-2 {
        fill: #28314b;
      }

      .cls-3 {
        fill: #fdfdfe;
      }
    </style>
  </defs>
  <g id="Layer_1-2" data-name="Layer 1">
    <g>
      <path class="cls-2" d="M3.99,1.28c7.85,19.12,5.41,36.91,2.66,32.49-2.96-4.77-4.71-10-5.59-15.58S-.92,4.74,1.28.5c.57-1.09,2.31-.2,2.71.78Z"/>
      <g>
        <path class="cls-3" d="M7.59,33.38C3.09,27.3,1.7,18.19,1,10.66c-.31-3.34-.1-6.61.95-9.87.81.02,1.2.7,1.48,1.4,2.24,5.57,3.65,11.32,4.54,17.31.49,4.58.8,8.93-.38,13.88Z"/>
        <path class="cls-1" d="M6.86,26.97c-1.06-.85-1.31-2.17-1.61-3.38-1.02-4.1-2.03-8.09-2.67-12.29l-.05-6.87c.96,1.48.45,3.14.63,4.85.66,6.09,2.19,11.82,3.69,17.69Z"/>
      </g>
    </g>
  </g>
</svg>